<?xml version="1.0" encoding="utf-8"?>
<!-- Generator: Adobe Illustrator 28.0.0, SVG Export Plug-In . SVG Version: 6.00 Build 0)  -->
<svg version="1.1" id="_Слой_2" xmlns="http://www.w3.org/2000/svg" xmlns:xlink="http://www.w3.org/1999/xlink" x="0px"
	 y="0px" viewBox="0 0 168.7 266.6" style="enable-background:new 0 0 168.7 266.6;" xml:space="preserve">
<style type="text/css">
	.st0{fill:#5B450E;}
	.st1{fill:#455A64;}
	.st2{fill:#FFFFFF;}
	.st3{fill:#1A1A1A;}
</style>
<g id="_Слой_1-2">
	<rect class="st0" width="168.7" height="266.6"/>
	<rect x="4.5" y="5" class="st1" width="159" height="257.2"/>
	<rect x="84.1" y="20" class="st2" width="63.4" height="98.4"/>
	<path class="st3" d="M119.1,28.7c0,1.3-1.1,2.4-2.4,2.4s-2.4-1.1-2.4-2.4s1.1-2.4,2.4-2.4S119.1,27.4,119.1,28.7z"/>
	<rect x="20.1" y="145.8" class="st2" width="63.4" height="98.4"/>
	<path class="st3" d="M55.2,154.5c0,1.3-1.1,2.4-2.4,2.4s-2.4-1.1-2.4-2.4s1.1-2.4,2.4-2.4S55.2,153.2,55.2,154.5z"/>
	<rect x="19.3" y="20" class="st2" width="54.2" height="76.8"/>
	<path class="st3" d="M48.3,27c0,1.1-0.9,2-2,2s-2-0.9-2-2s0.9-2,2-2S48.3,25.9,48.3,27z"/>
	
		<rect x="93.3" y="150.3" transform="matrix(0.9937 -0.1122 0.1122 0.9937 -17.8952 14.7813)" class="st2" width="58.3" height="32.3"/>
	<circle class="st3" cx="121.3" cy="156.5" r="2"/>
	<path class="st3" d="M75.1,168.2c0,0.3-10,0.5-22.2,0.5s-22.2-0.2-22.2-0.5s10-0.5,22.2-0.5S75.1,168,75.1,168.2z"/>
	<path class="st3" d="M75.1,175.3c0,0.3-10,0.5-22.2,0.5s-22.2-0.2-22.2-0.5s10-0.5,22.2-0.5S75.1,175,75.1,175.3z"/>
	<path class="st3" d="M75.1,182.3c0,0.3-10,0.5-22.2,0.5s-22.2-0.2-22.2-0.5s10-0.5,22.2-0.5S75.1,182,75.1,182.3z"/>
	<path class="st3" d="M75.1,189.3c0,0.3-10,0.5-22.2,0.5s-22.2-0.2-22.2-0.5s10-0.5,22.2-0.5S75.1,189.1,75.1,189.3z"/>
	<path class="st3" d="M75.1,196.4c0,0.3-10,0.5-22.2,0.5s-22.2-0.2-22.2-0.5s10-0.5,22.2-0.5S75.1,196.1,75.1,196.4z"/>
	<path class="st3" d="M75.1,203.4c0,0.3-10,0.5-22.2,0.5s-22.2-0.2-22.2-0.5s10-0.5,22.2-0.5S75.1,203.2,75.1,203.4z"/>
	<path class="st3" d="M75.1,210.5c0,0.3-10,0.5-22.2,0.5s-22.2-0.2-22.2-0.5s10-0.5,22.2-0.5S75.1,210.2,75.1,210.5z"/>
	<path class="st3" d="M144.1,160.7c0,0.3-9.8,1.9-21.9,3.6s-22.1,2.9-22.1,2.6c0-0.3,9.8-1.9,22-3.6
		C134.2,161.6,144.1,160.4,144.1,160.7L144.1,160.7z"/>
	<path class="st3" d="M145,165.1c0,0.3-9.8,1.9-21.9,3.6s-22.1,2.9-22.1,2.6s9.8-1.9,22-3.6C135.1,166,145,164.8,145,165.1
		L145,165.1z"/>
	<path class="st3" d="M145.8,169.1c0,0.3-9.8,1.9-21.9,3.6s-22.1,2.9-22.1,2.6c0-0.3,9.8-1.9,22-3.6
		C135.9,170.1,145.8,168.9,145.8,169.1L145.8,169.1z"/>
	<path class="st3" d="M141.9,40.6c0,0.3-11.2,0.5-25.1,0.5s-25.1-0.2-25.1-0.5s11.2-0.5,25.1-0.5S141.9,40.3,141.9,40.6z"/>
	<path class="st3" d="M141.9,44.8c0,0.3-11.2,0.5-25.1,0.5S91.6,45,91.6,44.8s11.2-0.5,25.1-0.5S141.9,44.5,141.9,44.8z"/>
	<path class="st3" d="M141.9,49c0,0.3-11.2,0.5-25.1,0.5S91.6,49.2,91.6,49s11.2-0.5,25.1-0.5S141.9,48.7,141.9,49z"/>
	<path class="st3" d="M141.9,53.1c0,0.3-11.2,0.5-25.1,0.5s-25.1-0.2-25.1-0.5s11.2-0.5,25.1-0.5S141.9,52.9,141.9,53.1z"/>
	<path class="st3" d="M141.9,57.3c0,0.3-11.2,0.5-25.1,0.5s-25.1-0.2-25.1-0.5s11.2-0.5,25.1-0.5S141.9,57.1,141.9,57.3z"/>
	<path class="st3" d="M141.9,61.5c0,0.3-11.2,0.5-25.1,0.5s-25.1-0.2-25.1-0.5s11.2-0.5,25.1-0.5S141.9,61.2,141.9,61.5z"/>
	<path class="st3" d="M141.9,65.7c0,0.3-11.2,0.5-25.1,0.5S91.6,66,91.6,65.7s11.2-0.5,25.1-0.5S141.9,65.4,141.9,65.7z"/>
	<path class="st3" d="M141.9,78.1c0,0.3-11.2,0.5-25.1,0.5s-25.1-0.2-25.1-0.5s11.2-0.5,25.1-0.5S141.9,77.8,141.9,78.1z"/>
	<path class="st3" d="M142.2,82.5c0,0.3-11.2,0.5-25.1,0.5S92,82.8,92,82.5s11.2-0.5,25.1-0.5S142.2,82.3,142.2,82.5z"/>
	<path class="st3" d="M142.6,87c0,0.3-11.2,0.5-25.1,0.5S92.4,87.2,92.4,87s11.2-0.5,25.1-0.5S142.6,86.7,142.6,87z"/>
	<path class="st3" d="M143,91.4c0,0.3-11.2,0.5-25.1,0.5s-25.1-0.2-25.1-0.5s11.2-0.5,25.1-0.5S143,91.1,143,91.4z"/>
	<path class="st3" d="M143.3,95.8c0,0.3-11.2,0.5-25.1,0.5s-25.1-0.2-25.1-0.5s11.2-0.5,25.1-0.5S143.3,95.5,143.3,95.8z"/>
	<path class="st3" d="M143.7,100.2c0,0.3-11.2,0.5-25.1,0.5s-25.1-0.2-25.1-0.5s11.2-0.5,25.1-0.5S143.7,100,143.7,100.2z"/>
</g>
</svg>
