<?xml version="1.0" encoding="utf-8"?>
<!-- Generator: Adobe Illustrator 28.0.0, SVG Export Plug-In . SVG Version: 6.00 Build 0)  -->
<svg version="1.1" id="_Слой_2" xmlns="http://www.w3.org/2000/svg" xmlns:xlink="http://www.w3.org/1999/xlink" x="0px"
	 y="0px" viewBox="0 0 452.4 342.2" style="enable-background:new 0 0 452.4 342.2;" xml:space="preserve">
<style type="text/css">
	.st0{fill:#AD7449;}
	.st1{fill:#1F292D;}
	.st2{fill:#E8505B;}
	.st3{opacity:0.4;}
	.st4{fill:#4C3221;}
</style>
<g id="_Слой_1-2">
	<rect y="49.1" class="st0" width="452.4" height="20.5"/>
	<rect x="20.8" y="69.6" class="st1" width="14.8" height="272"/>
	<rect x="394.4" y="69.6" class="st1" width="14.8" height="272"/>
	<rect x="35.4" y="134.2" class="st0" width="359" height="112.2"/>
	<rect x="35.6" y="89.8" class="st0" width="358.8" height="15.9"/>
	<path class="st2" d="M126.4,13.9h177.1c2.2,0,4,1.8,4,4.1v67.8c0,2.2-1.8,4.1-4,4.1H126.4c-2.2,0-4.1-1.8-4.1-4.1V17.9
		C122.4,15.7,124.2,13.9,126.4,13.9z"/>
	<path class="st0" d="M126.4,13.9h177.1c2.2,0,4,1.8,4,4.1v67.8c0,2.2-1.8,4.1-4,4.1H126.4c-2.2,0-4.1-1.8-4.1-4.1V17.9
		C122.4,15.7,124.2,13.9,126.4,13.9z"/>
	<g class="st3">
		<path d="M126.4,13.9h177.1c2.2,0,4,1.8,4,4.1v67.8c0,2.2-1.8,4.1-4,4.1H126.4c-2.2,0-4.1-1.8-4.1-4.1V17.9
			C122.4,15.7,124.2,13.9,126.4,13.9z"/>
	</g>
	<path class="st0" d="M290.2,209.3H137c-12,0-21.7-9.7-21.7-21.7l0,0c0-12,9.7-21.7,21.7-21.7h153.2c12,0,21.7,9.7,21.7,21.7l0,0
		C311.9,199.6,302.2,209.3,290.2,209.3z"/>
	<g class="st3">
		<path d="M290.2,209.3H137c-12,0-21.7-9.7-21.7-21.7l0,0c0-12,9.7-21.7,21.7-21.7h153.2c12,0,21.7,9.7,21.7,21.7l0,0
			C311.9,199.6,302.2,209.3,290.2,209.3z"/>
	</g>
	<path class="st1" d="M144.6,341.6H133V6.7c0-3.2,2.6-5.8,5.8-5.8l0,0c3.2,0,5.8,2.6,5.8,5.8L144.6,341.6L144.6,341.6z"/>
	<path class="st4" d="M144.6,341.6c0,0,0-0.6,0-1.9c0-1.2,0-3,0-5.3c0-4.7-0.1-11.6-0.1-20.5c-0.1-17.8-0.1-43.4-0.2-75.1
		c-0.1-31.6-0.1-69.3-0.2-111.2c0-20.9,0-42.8-0.1-65.6c0-11.4,0-23,0-34.7c0-5.9,0-11.8,0-17.7c-0.1-1.5,0.1-3.1-0.2-4.3
		c-0.3-1.3-1.2-2.5-2.3-3.2c-2.3-1.5-5.7-0.8-7.1,1.6c-0.6,1-0.9,2.1-0.8,3.3V11c0,2.6,0,5.1,0,7.6c0,5.1,0,10.1,0,15.1
		c0,10,0,19.9,0,29.6c0,19.5,0,38.4,0,56.7c0,36.5-0.1,70.2-0.1,99.9c-0.2,59.4-0.3,102.9-0.3,121.6l-0.1-0.1c3.9,0,6.8,0.1,8.8,0.1
		C143.7,341.6,144.6,341.7,144.6,341.6c0,0-0.9,0.1-2.8,0.1c-2,0-4.9,0-8.9,0.1h-0.1v-0.1c-0.1-18.7-0.2-62.3-0.3-121.6
		c0-29.7-0.1-63.4-0.1-99.9c0-18.2,0-37.2,0-56.7c0-9.8,0-19.6,0-29.6c0-5,0-10,0-15.1c0-2.5,0-5.1,0-7.6V7.2c-0.1-1.3,0.2-2.8,1-4
		c0.9-1.4,2.4-2.4,4-2.8c1.6-0.4,3.4-0.1,4.8,0.8c1.4,0.9,2.5,2.3,2.9,3.9c0.4,1.7,0.1,3.1,0.2,4.6c0,6,0,11.9,0,17.8
		c0,11.8,0,23.4,0,34.8c0,22.8,0,44.8-0.1,65.8c-0.1,41.9-0.1,79.6-0.2,111.3c-0.1,31.6-0.1,57.2-0.2,74.9c0,8.8-0.1,15.6-0.1,20.3
		c0,2.3,0,4,0,5.3C144.7,341.1,144.6,341.7,144.6,341.6L144.6,341.6z"/>
	<path class="st1" d="M296.5,341.6h-11.6V6.7c0-3.2,2.6-5.8,5.8-5.8l0,0c3.2,0,5.8,2.6,5.8,5.8V341.6z"/>
	<path class="st4" d="M296.5,341.6c0,0,0-0.6,0-1.9c0-1.2,0-3,0-5.3c0-4.7,0-11.6-0.1-20.5c0-17.8-0.1-43.4-0.2-75.1
		c0-31.6-0.1-69.3-0.2-111.2c0-20.9,0-42.8,0-65.6c0-11.4,0-23,0-34.7c0-5.9,0-11.8,0-17.7c0-1.5,0.1-3.1-0.2-4.3
		c-0.3-1.3-1.2-2.5-2.3-3.2c-2.3-1.5-5.7-0.8-7.1,1.6c-0.6,1-0.9,2.1-0.8,3.3V11c0,2.6,0,5.1,0,7.6c0,5.1,0,10.1,0,15.1
		c0,10,0,19.9,0,29.6c0,19.5,0,38.4,0,56.7c0,36.5-0.1,70.2-0.1,99.9c-0.2,59.4-0.3,102.9-0.3,121.6l-0.1-0.1c4,0,6.8,0.1,8.8,0.1
		C295.5,341.6,296.5,341.7,296.5,341.6c0,0-0.9,0.1-2.8,0.1c-2,0-4.9,0-8.9,0.1h-0.1v-0.1c0-18.7-0.2-62.3-0.3-121.6
		c0-29.7-0.1-63.4-0.1-99.9c0-18.2,0-37.2,0-56.7c0-9.8,0-19.6,0-29.6c0-5,0-10,0-15.1c0-2.5,0-5.1,0-7.6V7.2c-0.1-1.3,0.2-2.8,1-4
		c0.9-1.4,2.4-2.4,4-2.8c1.6-0.4,3.4-0.1,4.8,0.8c1.4,0.9,2.5,2.3,2.9,3.9c0.4,1.7,0.1,3.1,0.2,4.6c0,6,0,11.9,0,17.8
		c0,11.8,0,23.4,0,34.8c0,22.8,0,44.8,0,65.8c-0.1,41.9-0.1,79.6-0.2,111.3c-0.1,31.6-0.1,57.2-0.2,74.9c0,8.8-0.1,15.6-0.1,20.3
		c0,2.3,0,4,0,5.3C296.5,341.1,296.5,341.7,296.5,341.6L296.5,341.6z"/>
</g>
</svg>
