<?xml version="1.0" encoding="utf-8"?>
<!-- Generator: Adobe Illustrator 28.0.0, SVG Export Plug-In . SVG Version: 6.00 Build 0)  -->
<svg version="1.1" id="_Слой_2" xmlns="http://www.w3.org/2000/svg" xmlns:xlink="http://www.w3.org/1999/xlink" x="0px"
	 y="0px" viewBox="0 0 169.5 98.6" style="enable-background:new 0 0 169.5 98.6;" xml:space="preserve">
<style type="text/css">
	.st0{fill:#664B0E;}
	.st1{fill:#FFFFFF;}
</style>
<g id="_Слой_1-2">
	<path class="st0" d="M0,0v98.6h169.5L0,0z M26,39.7l70.4,41.7H26C26,81.4,26,39.7,26,39.7z"/>
	<path class="st1" d="M16.3,9.5c0.3,0.2-1.1,2.9-3.1,6s-3.8,5.6-4.1,5.4c-0.3-0.2,1.1-2.9,3.1-6S16,9.3,16.3,9.5z"/>
	<path class="st1" d="M41.4,23.9c0.3,0.2-1.1,2.8-3,5.9s-3.7,5.4-4,5.2c-0.3-0.2,1.1-2.8,3-5.9C39.4,26.1,41.2,23.8,41.4,23.9
		L41.4,23.9z"/>
	<path class="st1" d="M66.6,38.4c0.3,0.2-1.4,2.7-3.6,5.5c-2.2,2.8-4.3,5-4.5,4.8c-0.3-0.2,1.4-2.7,3.6-5.5S66.3,38.2,66.6,38.4z"/>
	<path class="st1" d="M91.3,53.4c0.3,0.2-1.4,2.7-3.6,5.5c-2.2,2.8-4.3,5-4.5,4.8s1.4-2.7,3.6-5.5S91,53.2,91.3,53.4z"/>
	<path class="st1" d="M117.1,68.2c0.3,0.2-1.2,2.8-3.3,5.9c-2.1,3.1-4,5.4-4.3,5.2c-0.3-0.2,1.2-2.8,3.3-5.9
		C114.9,70.4,116.8,68,117.1,68.2z"/>
	<path class="st1" d="M143.9,83.8c0.3,0.2-1.1,2.7-3,5.6s-3.7,5.2-4,5s1.1-2.7,3-5.6S143.6,83.6,143.9,83.8z"/>
	<path class="st1" d="M24.1,14c0.3,0.2-0.3,1.6-1.3,3.2s-2,2.7-2.3,2.5c-0.3-0.2,0.3-1.6,1.3-3.2S23.8,13.9,24.1,14z"/>
	<path class="st1" d="M32.4,18.6c0.3,0.2-0.3,1.6-1.3,3.2s-2,2.7-2.3,2.5c-0.3-0.2,0.3-1.6,1.3-3.2S32.1,18.5,32.4,18.6z"/>
	<path class="st1" d="M50.7,29.4c0.3,0.2-0.3,1.6-1.3,3.2s-2,2.7-2.3,2.5s0.3-1.6,1.3-3.2S50.4,29.2,50.7,29.4z"/>
	<path class="st1" d="M58.9,34c0.3,0.2-0.3,1.6-1.3,3.2s-2,2.7-2.3,2.5s0.3-1.6,1.3-3.2S58.7,33.8,58.9,34z"/>
	<path class="st1" d="M75.5,44.3c0.3,0.2-0.3,1.6-1.3,3.2c-1,1.6-2,2.7-2.3,2.5s0.3-1.6,1.3-3.2C74.2,45.2,75.2,44.1,75.5,44.3z"/>
	<path class="st1" d="M83.4,48.9c0.3,0.2-0.3,1.6-1.3,3.2c-1,1.6-2,2.7-2.3,2.5s0.3-1.6,1.3-3.2C82.1,49.8,83.1,48.7,83.4,48.9z"/>
	<path class="st1" d="M100.3,58.7c0.3,0.2-0.3,1.6-1.3,3.2c-1,1.6-2,2.7-2.3,2.5s0.3-1.6,1.3-3.2C99,59.6,100.1,58.5,100.3,58.7z"/>
	<path class="st1" d="M109.4,64c0.3,0.2-0.3,1.6-1.3,3.2c-1,1.6-2,2.7-2.3,2.5s0.3-1.6,1.3-3.2C108.2,65,109.2,63.9,109.4,64z"/>
	<path class="st1" d="M125.8,73.6c0.3,0.2-0.3,1.6-1.3,3.2c-1,1.6-2,2.7-2.3,2.5s0.3-1.6,1.3-3.2C124.6,74.6,125.6,73.5,125.8,73.6z
		"/>
	<path class="st1" d="M135.3,79.1c0.3,0.2-0.3,1.6-1.3,3.2c-1,1.6-2,2.7-2.3,2.5s0.3-1.6,1.3-3.2C134,80,135,78.9,135.3,79.1z"/>
</g>
</svg>
