<?xml version="1.0" encoding="utf-8"?>
<!-- Generator: Adobe Illustrator 28.0.0, SVG Export Plug-In . SVG Version: 6.00 Build 0)  -->
<svg version="1.1" id="_Слой_2" xmlns="http://www.w3.org/2000/svg" xmlns:xlink="http://www.w3.org/1999/xlink" x="0px"
	 y="0px" viewBox="0 0 508.6 412" style="enable-background:new 0 0 508.6 412;" xml:space="preserve">
<style type="text/css">
	.st0{fill:#5D5D7E;}
	.st1{fill:#263238;}
	.st2{fill:#5F5E80;}
	.st3{fill:#BD7F50;}
	.st4{fill:#AD7449;}
	.st5{fill:#D38D59;}
	.st6{fill:#9D6943;}
</style>
<g id="_Слой_1-2">
	<path class="st0" d="M70.2,0c0,0-23.7,0.8-19.6,22.9c4.1,22,55.5,206.6,55.5,206.6h181.9c6.8,0,12.2-5.5,12.2-12.2l0,0
		c0-6.8-5.5-12.2-12.2-12.2H225L176.5,22.1C173.6,9.2,162.1,0,148.9,0H70.2z"/>
	<path class="st1" d="M131,229.5c-0.3,0.1-14.2-51.2-31-114.6C83.2,51.5,69.9,0.1,70.2,0s14.2,51.2,31,114.6
		C118,178,131.3,229.4,131,229.5L131,229.5z"/>
	<path class="st1" d="M123.5,204.9c0-0.3,27.6-0.6,61.7-0.6s61.7,0.3,61.7,0.6s-27.6,0.6-61.7,0.6S123.5,205.2,123.5,204.9z"/>
	<rect x="189.8" y="238.2" class="st2" width="27.9" height="80.1"/>
	<polygon class="st2" points="208.1,383.7 199.5,383.7 199.5,378.1 199.5,307.8 208.1,307.8 	"/>
	<polygon class="st2" points="123.5,412 199.5,379.3 208.1,379.3 291.8,412 	"/>
	<rect x="428.2" y="158.6" class="st3" width="12.1" height="253.4"/>
	<rect x="294.3" y="158.6" class="st3" width="12.1" height="253.4"/>
	<rect x="131" y="130.5" class="st4" width="363.4" height="161"/>
	<rect x="1.2" y="123.6" class="st5" width="507.3" height="24.5"/>
	<rect x="8.8" y="148.1" class="st4" width="110.1" height="143.4"/>
	<path class="st6" d="M502.6,148.7c0,0.3-112.5,0.6-251.3,0.6S0,149.1,0,148.7s112.5-0.6,251.3-0.6S502.6,148.4,502.6,148.7z"/>
	<rect x="118.9" y="149.3" class="st3" width="12.1" height="262.7"/>
	<rect x="8.2" y="148.7" class="st3" width="12.1" height="263.2"/>
</g>
</svg>
