<?xml version="1.0" encoding="utf-8"?>
<!-- Generator: Adobe Illustrator 28.0.0, SVG Export Plug-In . SVG Version: 6.00 Build 0)  -->
<svg version="1.1" id="_Слой_2" xmlns="http://www.w3.org/2000/svg" xmlns:xlink="http://www.w3.org/1999/xlink" x="0px"
	 y="0px" viewBox="0 0 225.5 646.7" style="enable-background:new 0 0 225.5 646.7;" xml:space="preserve">
<style type="text/css">
	.st0{fill:#263238;}
	.st1{fill:#EDA688;}
	.st2{fill:#D68663;}
	.st3{fill:#455A64;}
	.st4{fill:#474745;}
	.st5{fill:#E0E0E0;}
	.st6{opacity:0.6;}
	.st7{fill:#FFFFFF;}
	.st8{fill:#EBEBEB;}
	.st9{fill:#E8505B;}
</style>
<g id="_Слой_1-2">
	<path class="st0" d="M95.8,12.6c8.7,2.5,15.2,11.2,15.1,20.2c-0.1,4.6-1.5,9.9,1.4,13.5c1.9,2.4,5.2,3.2,7.6,5
		c2.7,2.1,4.2,5.5,4,8.9c-0.2,3.4-2.3,6.6-5.3,8.3c2.9,2.2,7,2.8,10.5,1.5c-0.4,3.6-2.4,6.9-5.4,8.9c-3,2-6.9,2.5-10.3,1.4
		c-0.3,3.6,1.1,7.3,3.8,9.7c-5.1-1.6-10.6,0.2-15.4,2.5s-9.7,5-15,5.3c-5.6,0.3-11.1-2.2-15.4-5.8c-4.3-3.6-7.7-8.2-11-12.7"/>
	<path class="st1" d="M99.9,39c-0.5-12-13.2-24.1-25.1-23.1L36,22.6V29l-0.3,83l45.1,19.7l-0.7-31.2c0,0,15.3-2.3,18.8-22.1
		C100.8,68.6,100.5,52.3,99.9,39L99.9,39z"/>
	<path class="st0" d="M92.4,51.3c0,1.3-1.1,2.5-2.5,2.5s-2.6-1-2.6-2.3s1.1-2.5,2.5-2.5S92.4,49.9,92.4,51.3L92.4,51.3z"/>
	<path class="st0" d="M96.3,47.4c-0.3,0.3-2.2-1.1-5-1.2c-2.8-0.1-4.8,1.3-5.1,1c-0.1-0.2,0.2-0.8,1.1-1.4c0.9-0.6,2.4-1.2,4.1-1.2
		c1.7,0,3.1,0.7,4,1.4C96.2,46.7,96.4,47.3,96.3,47.4L96.3,47.4z"/>
	<path class="st0" d="M68,51.3c0,1.3-1.1,2.5-2.5,2.5s-2.6-1-2.6-2.3s1.1-2.5,2.5-2.5C66.8,48.8,68,49.9,68,51.3L68,51.3z"/>
	<path class="st0" d="M69.2,47.5c-0.3,0.3-2.2-1.1-5-1.2c-2.8-0.1-4.8,1.3-5.1,1c-0.1-0.2,0.2-0.8,1.1-1.4c0.9-0.6,2.4-1.2,4.1-1.2
		s3.1,0.7,4,1.4C69.1,46.7,69.4,47.3,69.2,47.5L69.2,47.5z"/>
	<path class="st0" d="M78.8,68c0-0.2,1.7-0.4,4.5-0.7c0.7-0.1,1.4-0.2,1.5-0.7c0.2-0.5-0.1-1.3-0.4-2.1c-0.6-1.7-1.3-3.5-2-5.4
		c-2.8-7.7-4.7-14-4.4-14.1c0.3-0.1,2.8,6,5.5,13.7c0.7,1.9,1.3,3.7,1.9,5.4c0.2,0.8,0.7,1.7,0.3,2.8c-0.2,0.5-0.7,0.9-1.2,1
		c-0.4,0.1-0.8,0.1-1.2,0.1C80.6,68.2,78.9,68.2,78.8,68L78.8,68z"/>
	<path class="st2" d="M80.2,100.6c0,0-13.4,0.6-26.6-7.6c0,0,6.8,14.1,26.8,12.5L80.2,100.6L80.2,100.6z"/>
	<path class="st2" d="M76.9,73.8c0.9,0.2,1.2,1.7,1,2s-0.8,0.7-1,1c-0.7,1.2-2.4,1.9-4,2c-1.4,0.1-3.5-1.1-4.2-2.2
		c-0.6-0.9-0.5-2.3,0.3-3.3c0.7-1,2-1.5,3.2-1.6c1.7-0.2,2.5-0.3,2.8,1.1C75.1,73.4,76.2,74.1,76.9,73.8L76.9,73.8z"/>
	<path class="st0" d="M70.7,69.8c0.4,0,0.4,3,2.9,5.1c2.5,2.2,5.7,1.9,5.7,2.3c0,0.2-0.7,0.6-2.1,0.6c-1.3,0-3.2-0.4-4.8-1.8
		c-1.5-1.3-2.2-3.1-2.3-4.3C70.2,70.5,70.5,69.8,70.7,69.8L70.7,69.8z"/>
	<path class="st0" d="M70.1,36.7c-0.3,0.7-3,0.3-6.3,0.7c-3.2,0.3-5.9,1.2-6.3,0.5c-0.2-0.3,0.3-1,1.3-1.7c1.1-0.7,2.7-1.4,4.7-1.5
		s3.7,0.2,4.9,0.7C69.7,35.7,70.2,36.3,70.1,36.7L70.1,36.7z"/>
	<path class="st0" d="M95.4,39.5c-0.5,0.6-2.4-0.1-4.7-0.1c-2.3-0.2-4.2,0.3-4.7-0.3c-0.2-0.3,0.1-0.9,1-1.5c0.8-0.6,2.2-1,3.8-1
		c1.6,0.1,2.9,0.7,3.7,1.3C95.3,38.5,95.6,39.1,95.4,39.5L95.4,39.5z"/>
	<path class="st0" d="M73.5,14.1c0.4-3.7-3.1-6.9-6.7-7.4s-7.3,1-10.5,2.8c-3.2,1.8-6.3,3.9-9.9,4.7c-3.1,0.7-6.4,0.5-9.5,1
		c-7.1,1.2-13.4,6.7-15.4,13.6c-1.2,4.2-1,8.8-3,12.8c-1.7,3.4-4.9,6-5.9,9.7c-1.3,4.6,1.1,9.3,3.3,13.5S20,74.2,18,78.5
		c4.2,1.4,8.7,2,13.1,1.8c1.6-0.1,3.2-0.3,4.5-1.1c2.1-1.4,2.7-4.1,3.2-6.5c2.1-11.2,3.2-22.9,9-32.8c2.2-3.8,5.1-7.3,6.2-11.5
		c0.6-2.4,0.7-5.2,2.2-7.1c1.5-1.8,4-2.4,6.4-2.6c2.4-0.2,4.8,0,7-0.8c2.2-0.7,4.3-2.6,4.3-5"/>
	<path class="st0" d="M107.2,33.6c-1.7-2.4-2.1-5.4-2.1-8.4s0.5-5.9,0.2-8.8c-0.8-8.1-7.7-15.7-15.8-16.4
		C79.3-0.8,70.9,7.7,70.9,7.7s0,0,0,0c-0.2-0.4-0.5-0.8-0.8-1.2c-1.7-1.9-4.1-3-6.5-3.8c-3.4-1-7.1-1.2-10.3,0.2
		c-2.7,1.2-4.8,3.5-7.5,4.6c-3.1,1.1-6.6,0.5-9.9,0.9c-7.2,0.9-12.9,6.9-15.5,13.6s-2.8,14.2-2.9,21.4l4.4-2.7
		c-1.9,4.2-4.1,8.2-8,10c2.2,1.6,4.1,0.3,6.4-1.1c-2.8,5-3.8,10.9-3,16.6c0.4,2.8,1.3,5.6,1,8.4c-0.3,2.8-2.1,5.8-4.9,6.1
		c4.6,3.9,10.4,6.9,16.4,6.9c-0.6,2.9-2.2,5.7-4.5,7.5c5.8,2,12.5,0.9,17.3-2.7c4.9-3.7,7.7-9.9,7.3-16c-0.3-4.6-2.3-9-1.6-13.5
		c0.6-4.3,3.5-7.9,5.1-12c0.9-2.3,1.4-4.7,1.5-7.2c1-1.5,1.7-3.2,2-5c0.9-5.3-2.1-10.6-1.2-15.9c0.2-1,0.5-2,1-3l3.2-2
		c2.2,0.1,4.5,0.3,6.7-0.2c0.7-0.2,1.4-0.4,2-0.8c0,0.5,0,0.8-0.1,1.4c0,0,2.9,4.5,7.7,4.5s13.2-0.8,14.8,4.1
		c1.3,3.9,3.1,8.1,6.2,10.8s5.5,4.5,9.7,4.3c4.2-0.2,8.6-2,8.3-6.1C112.4,37.3,109,35.9,107.2,33.6L107.2,33.6z"/>
	<path class="st3" d="M14.2,58c0-0.1,1.2,0,3.3-0.2c2.1-0.3,5.1-1,8.1-3.2c3-2.1,5.9-5.9,6.7-10.8c0.4-2.4,0.3-5,0.1-7.8
		c-0.2-2.7-0.3-5.6,0.3-8.6c0.7-3,2.3-5.6,4.3-7.6c2.1-2,4.7-3.1,7.2-3.7c2.5-0.6,4.9-0.7,7.2-0.9c2.2-0.2,4.2-0.6,6.1-1
		c7.3-1.9,11.2-4.9,11.3-4.7c0,0.1-0.9,0.8-2.7,1.9s-4.6,2.5-8.3,3.6c-1.8,0.5-3.9,0.9-6.2,1.2c-2.2,0.3-4.6,0.5-7,1
		c-2.4,0.5-4.8,1.6-6.7,3.5c-1.9,1.8-3.4,4.2-4,6.9c-1.2,5.5,0.5,11.1-0.5,16.3c-1,5.2-4.1,9.1-7.3,11.3c-3.2,2.2-6.5,2.8-8.6,3
		c-1.1,0.1-1.9,0-2.5-0.1C14.5,58.1,14.2,58,14.2,58L14.2,58z"/>
	<path class="st3" d="M17.4,71.4c0-0.1,1.2,0.2,3.5,0.4c2.2,0.1,5.5-0.1,9.2-1.7c3.6-1.5,7.6-4.4,10.4-8.8c2.9-4.4,4.7-10,5.2-16.1
		c0.5-6-0.6-12,0.8-17.4c1.3-5.4,5.2-9.3,8.9-11c3.8-1.8,7.3-1.6,9.6-1.2c1.1,0.2,2,0.5,2.5,0.7c0.6,0.2,0.8,0.4,0.8,0.4
		c0,0.1-1.2-0.4-3.4-0.7c-2.2-0.3-5.5-0.2-9.1,1.5c-3.5,1.7-7.1,5.4-8.2,10.5c-1.2,5.1-0.2,11-0.7,17.2c-0.5,6.2-2.4,12.1-5.5,16.6
		c-3,4.6-7.2,7.5-11,9c-3.8,1.5-7.3,1.7-9.5,1.4c-1.1-0.1-2-0.3-2.6-0.5C17.7,71.6,17.4,71.4,17.4,71.4L17.4,71.4z"/>
	<path class="st3" d="M114.9,35.9c0.1,0-0.5,1-2.3,1.8c-1.7,0.7-4.5,1.3-7.8,0.5c-0.8-0.2-1.7-0.5-2.5-1c-0.9-0.5-1.5-1.3-2.1-2.1
		c-1.2-1.6-2.3-3.4-3.1-5.5c-1.6-4.3-1-9.2-2.1-13.9c-0.5-2.3-1.5-4.6-3-6.2c-1.5-1.7-3.5-2.6-5.5-2.7c-4.1-0.2-7.8,1.5-10.6,3
		c-5.5,3.4-7.5,7.2-7.7,7c-0.1,0,0.4-1,1.5-2.4c1.1-1.5,2.9-3.5,5.7-5.3c1.4-0.9,3-1.8,4.9-2.4c1.8-0.7,3.9-1.2,6.2-1
		c2.3,0.1,4.7,1.2,6.3,3c1.7,1.8,2.8,4.2,3.3,6.7c1.1,5,0.5,9.9,1.9,13.8c0.7,2,1.7,3.7,2.8,5.3c0.6,0.8,1.1,1.5,1.8,1.9
		c0.7,0.5,1.4,0.8,2.2,1c3.1,0.8,5.8,0.4,7.4-0.1C114.2,36.7,114.8,35.8,114.9,35.9L114.9,35.9z"/>
	<path class="st3" d="M112.1,87.6c0,0-0.7,0.6-2.3,0.6c-1.5-0.1-3.9-1-5.2-3.6c-1.3-2.6-0.9-6.2,0.8-9.4c1.7-3.2,4.6-5.9,6.8-9.2
		c1.1-1.6,1.9-3.4,2.2-5.2c0.3-1.8,0.2-3.6-0.4-5.1c-0.5-1.6-1.4-3-2.4-4.1s-2.2-1.8-3.3-2.5c-1.1-0.7-2.2-1.4-2.9-2.2
		c-0.8-0.8-1.2-1.7-1.4-2.4c-0.4-1.5,0.1-2.4,0.1-2.3c0.1,0-0.2,0.9,0.3,2.2c0.3,0.7,0.7,1.4,1.5,2.1c0.7,0.7,1.7,1.3,2.9,1.9
		c1.2,0.6,2.5,1.4,3.7,2.6c1.1,1.2,2.1,2.7,2.7,4.4c0.6,1.7,0.8,3.7,0.5,5.7c-0.3,2-1.3,3.9-2.4,5.6c-2.3,3.4-5.2,6.1-6.8,9.1
		c-1.7,2.9-2.1,6.2-1,8.5c1,2.3,3.1,3.3,4.5,3.5C111.3,87.9,112.1,87.5,112.1,87.6L112.1,87.6z"/>
	<path class="st3" d="M114.4,35.6c0.1,0.1-1.1,1.1-3.5,0.8c-2.4-0.4-5.1-2.7-6.3-6c-0.6-1.6-0.9-3.3-0.8-4.8
		c0.1-1.5,0.4-2.8,0.7-3.8c0.6-2.1,0.9-3.4,1-3.4c0.2,0,0.2,1.4-0.2,3.6c-0.2,1.1-0.4,2.4-0.4,3.7c-0.1,1.3,0.3,2.8,0.8,4.3
		c1.1,3,3.4,5.1,5.3,5.6C113,36.1,114.3,35.4,114.4,35.6z"/>
	<path class="st0" d="M40.8,268.1c-0.4,0-2.7,16.9-2.7,16.9l93.8-1.5l-3.2-19.6L40.8,268.1L40.8,268.1z"/>
	<path class="st4" d="M161.4,560.9L145,591.2c0,0,25.3,26.8,22.9,32.7l-59.9-29.6l23.5-48.3L161.4,560.9z"/>
	<path class="st5" d="M127.8,579.5c-1.3-0.3-2.8,0.7-3.1,2s0.6,2.8,1.9,3.1c1.3,0.3,3.1-0.8,3.2-2.1s-1-3-2.3-3"/>
	<g class="st6">
		<path class="st7" d="M107.9,594.3l2.6-4.8l56.5,30.1c0,0,2.1,2.5,0.9,4.2L107.9,594.3z"/>
	</g>
	<path class="st0" d="M146.1,591.4c-0.1,0.3-1.7-0.3-3.6-0.1c-1.9,0.2-3.3,1.1-3.5,0.8c-0.2-0.2,1.1-1.7,3.4-2
		C144.7,589.9,146.3,591.2,146.1,591.4z"/>
	<path class="st0" d="M151.1,597.1c-0.1,0.3-1.6,0.2-3.2,0.9c-1.6,0.7-2.5,1.9-2.8,1.8c-0.3-0.1,0.4-1.9,2.4-2.8
		C149.5,596.1,151.3,596.8,151.1,597.1L151.1,597.1z"/>
	<path class="st0" d="M151,606.4c-0.3-0.1,0-1.7,1.6-3c1.5-1.2,3.2-1.2,3.2-0.9c0.1,0.3-1.3,0.7-2.5,1.8
		C152,605.3,151.3,606.5,151,606.4L151,606.4z"/>
	<path class="st0" d="M149.1,584.1c-0.2,0.2-1.4-0.9-3.1-1.6c-1.7-0.7-3.3-0.8-3.3-1.1c-0.1-0.3,1.7-0.8,3.7,0.1
		C148.4,582.3,149.4,583.9,149.1,584.1L149.1,584.1z"/>
	<path class="st0" d="M152.3,577.9c-0.1,0.1-1.3-0.3-3-1.5c-0.8-0.6-1.8-1.5-2.7-2.5c-0.4-0.5-0.9-1.1-1.3-1.8
		c-0.2-0.3-0.4-0.7-0.6-1.2c-0.2-0.5,0-1.3,0.6-1.6c0.5-0.3,1.2-0.2,1.6,0c0.4,0.2,0.8,0.5,1.1,0.7c0.6,0.5,1.1,1,1.6,1.6
		c0.9,1.1,1.5,2.2,1.9,3.2c0.8,2,0.7,3.3,0.6,3.3c-0.2,0-0.4-1.2-1.3-3c-0.4-0.9-1.1-1.9-1.9-2.8c-0.4-0.5-0.9-1-1.5-1.4
		c-0.6-0.5-1.1-0.8-1.4-0.5c-0.1,0.1-0.1,0.1-0.1,0.4c0.1,0.2,0.2,0.5,0.4,0.8c0.4,0.6,0.8,1.2,1.1,1.7c0.8,1,1.6,1.9,2.4,2.5
		C151.3,577.1,152.4,577.7,152.3,577.9L152.3,577.9z"/>
	<path class="st0" d="M151.7,578.1c-0.1,0-0.2-1.3,0.6-3.3c0.4-1,1.1-2.1,2-3.1c0.5-0.5,1-1,1.7-1.5c0.6-0.4,1.5-1,2.7-0.6
		c0.6,0.3,0.9,1,0.8,1.5c0,0.5-0.1,0.9-0.2,1.2c-0.2,0.8-0.6,1.4-1,2c-0.8,1.2-1.9,2-2.8,2.5c-1.9,1-3.3,0.7-3.3,0.6
		c0-0.2,1.3-0.3,2.9-1.3c0.8-0.5,1.7-1.3,2.3-2.3c0.3-0.5,0.6-1.1,0.8-1.8c0.2-0.7,0.2-1.3,0-1.4c-0.3-0.2-1,0.1-1.5,0.5
		c-0.6,0.4-1.1,0.8-1.6,1.3c-0.9,0.9-1.6,1.8-2.1,2.7C152.1,576.9,151.9,578.1,151.7,578.1L151.7,578.1z"/>
	<path class="st4" d="M145.4,587.2l6.2,33.9c0,0,36.5,5.1,38.3,11.2l-65.3,14.4l-11.8-52.4L145.4,587.2L145.4,587.2z"/>
	<path class="st5" d="M130.8,622.7c-1.2,0.6-1.8,2.2-1.2,3.5s2.2,1.8,3.4,1.2s1.9-2.5,1.2-3.7s-2.7-1.7-3.7-0.8"/>
	<g class="st6">
		<path class="st7" d="M124.6,646.7l-1-5.3l63-11.8c0,0,3.2,0.6,3.3,2.7L124.6,646.7L124.6,646.7z"/>
	</g>
	<path class="st0" d="M152.6,620.5c0.1,0.3-1.5,0.8-2.8,2.2c-1.4,1.3-1.9,2.9-2.2,2.8c-0.3,0-0.2-2,1.4-3.6
		C150.6,620.2,152.6,620.2,152.6,620.5L152.6,620.5z"/>
	<path class="st0" d="M160,621.8c0.1,0.3-1.1,1.1-1.9,2.7c-0.8,1.6-0.8,3.1-1.1,3.1c-0.3,0.1-0.9-1.7,0.1-3.7
		C158.1,622,160,621.5,160,621.8L160,621.8z"/>
	<path class="st0" d="M165.7,629.1c-0.3,0.1-1.1-1.4-0.6-3.3c0.4-1.9,1.8-3,2-2.7c0.2,0.2-0.5,1.4-0.9,3
		C165.8,627.7,166.1,629,165.7,629.1z"/>
	<path class="st0" d="M150.3,612.9c-0.1,0.3-1.6,0.2-3.4,0.7c-1.8,0.5-3.1,1.4-3.3,1.2c-0.2-0.2,0.9-1.7,3-2.3
		C148.7,611.9,150.4,612.6,150.3,612.9L150.3,612.9z"/>
	<path class="st0" d="M148.9,606.1c0,0.1-1.2,0.6-3.3,0.7c-1,0-2.3,0-3.6-0.3c-0.7-0.1-1.4-0.3-2.1-0.6c-0.3-0.1-0.7-0.2-1.2-0.5
		c-0.4-0.2-0.8-1.1-0.5-1.7c0.2-0.6,0.8-0.9,1.2-1c0.5-0.1,0.9-0.1,1.3-0.1c0.8,0,1.5,0.1,2.2,0.2c1.4,0.3,2.5,0.8,3.4,1.3
		c1.8,1.1,2.6,2.1,2.5,2.2c-0.1,0.1-1.1-0.7-2.9-1.5c-0.9-0.4-2-0.8-3.3-1c-0.6-0.1-1.3-0.2-2-0.2c-0.7,0-1.3,0.1-1.4,0.4
		c0,0.1,0,0.2,0.1,0.3c0.2,0.2,0.5,0.3,0.9,0.4c0.7,0.2,1.3,0.5,1.9,0.6c1.3,0.3,2.4,0.5,3.4,0.5
		C147.6,606.1,148.9,605.9,148.9,606.1L148.9,606.1z"/>
	<path class="st0" d="M148.6,606.6c-0.1,0.1-1-0.9-1.6-3c-0.3-1-0.4-2.3-0.3-3.7c0.1-0.7,0.2-1.4,0.4-2.2c0.2-0.7,0.5-1.7,1.7-2.1
		c0.6-0.2,1.3,0.2,1.6,0.6c0.3,0.4,0.4,0.8,0.6,1.1c0.3,0.7,0.4,1.5,0.5,2.2c0.1,1.4-0.2,2.7-0.6,3.7c-0.9,2-2.1,2.7-2.2,2.5
		c-0.1-0.1,0.8-1,1.4-2.8c0.3-0.9,0.5-2.1,0.4-3.3c-0.1-0.6-0.2-1.3-0.5-1.9c-0.3-0.7-0.6-1.2-0.9-1c-0.3,0.1-0.8,0.7-0.9,1.3
		c-0.2,0.7-0.3,1.3-0.4,2c-0.1,1.3-0.1,2.4,0.1,3.4C148.2,605.4,148.8,606.5,148.6,606.6L148.6,606.6z"/>
	<path class="st0" d="M124.4,272.8l91.3,131.7c9.6,12.4,12.4,28.9,7.3,43.8l-72.7,148.1l-29-46.3l45.7-109.6l-53.7-67.8l-24.2-99.9
		L124.4,272.8L124.4,272.8z"/>
	<path class="st0" d="M109.5,302.5l-2.2-28l-61-1.7c0,0-16.5,7.4-16.9,48.4c-0.3,37.3,38.7,113.4,38.7,113.4l44.6,191l41.7-9.5
		L109.5,302.5L109.5,302.5z"/>
	<path class="st3" d="M116.1,307c0.1,0,0.2,1.2,0.2,3.3c0.1,2.4,0.1,5.4,0.2,9c0.2,7.6,0.6,18.1,1.6,29.7
		c0.9,11.6,2.1,22.1,3.1,29.6c0.5,3.6,0.9,6.6,1.2,9c0.3,2.1,0.4,3.3,0.3,3.3c-0.1,0-0.4-1.1-0.8-3.2c-0.4-2.1-1-5.1-1.6-8.9
		c-1.2-7.5-2.5-18-3.5-29.6c-0.9-11.6-1.2-22.2-1.2-29.8c0-3.8,0.1-6.9,0.2-9C115.9,308.2,116,307,116.1,307L116.1,307z"/>
	<path class="st3" d="M111.2,265.2c0.2,0,0.9,1.9,1.8,5.1c0.9,3.2,1.9,7.7,2.6,12.8s1,9.7,1,13s-0.2,5.4-0.3,5.4
		c-0.4,0-0.5-8.2-1.9-18.2C113.1,273.2,110.9,265.3,111.2,265.2L111.2,265.2z"/>
	<path class="st3" d="M57.6,306.7c-0.2,0-0.2-2.2,0-5.8s0.6-8.6,1.2-14c1.1-9.5,2.5-17.4,3.1-19.2l0.2,0l0,0.1l0,0l0,0l0,0l-0.2,0
		l0,0l0,0l0,0v0v0c0.1,0-0.1-0.1,0.2-0.1c0,0.1-0.1,0.1-0.1,0.1s0,0,0-0.1c0.3,0.1,0.1,0.1,0.1,0.1v0v0l0,0v0l0,0l-0.2,0l0,0l0,0
		l0,0v-0.1l0.2,0c0,1.9-1,9.8-2.1,19.3c-0.6,5.2-1.1,9.9-1.6,14C58.1,304.5,57.8,306.7,57.6,306.7L57.6,306.7z"/>
	<path class="st3" d="M68.1,294.2c-0.3,0-0.8-6-1-13.4c-0.2-7.4-0.1-13.4,0.3-13.4c0.3,0,0.8,6,1,13.4
		C68.6,288.1,68.5,294.2,68.1,294.2z"/>
	<path class="st3" d="M196,452.9c0,0.1-1.8,0.7-4.8,1.3c-1.5,0.2-3.4,0.5-5.4,0.4c-2.1-0.1-4.4-0.5-6.6-1.6
		c-2.2-1.1-3.9-2.8-5.2-4.4c-1.3-1.6-2.4-3.1-3.3-4.3c-1.9-2.4-3.3-3.6-3.2-3.7c0.1-0.1,1.8,0.9,3.9,3.2c2.1,2.2,4.4,6,8.4,8.1
		c4,2,8.4,1.6,11.4,1.4C194.1,453,195.9,452.7,196,452.9L196,452.9z"/>
	<path class="st3" d="M178.7,461.4c-0.2,0.2-3.9-4-7.1-10c-3.3-6-4.8-11.3-4.5-11.4c0.3-0.1,2.4,4.9,5.6,10.8
		C175.8,456.7,179,461.2,178.7,461.4L178.7,461.4z"/>
	<path class="st5" d="M137.2,225.8c0,0,5.9,7.8,12.9,8.8c4.3,0.6,11.2,0.7,16-2.5c8.1-5.4,10.6-16.2,5.8-24.7l0,0L137.2,225.8
		L137.2,225.8z"/>
	<path class="st5" d="M170.5,228.1c-15.1,16.6-38-0.3-43.3-4.3c-6.6-4.9-15.6-22.1-15.6-22.1l-30.4-68.9c-0.4-0.8,9.3,0.8,11.8,2.7
		c5.1,3.9,18.1,16.3,23.7,21c9.3,7.8,39.7,38.4,39.7,38.4l0,0C164.6,201.8,179.9,214.6,170.5,228.1
		C170.4,228.2,170.6,228,170.5,228.1L170.5,228.1z"/>
	<path class="st0" d="M101.4,178.9c-0.3-0.2,3.3-5.1,8-10.8c4.7-5.8,8.7-10.3,9-10.1s-3.3,5.1-8,10.8
		C105.7,174.6,101.6,179.1,101.4,178.9z"/>
	<path class="st0" d="M103.9,183.6c-0.3-0.2,3.6-5.4,8.6-11.6c5-6.2,9.3-11,9.6-10.8c0.3,0.2-3.6,5.4-8.7,11.6
		C108.5,179,104.2,183.9,103.9,183.6L103.9,183.6z"/>
	<path class="st5" d="M35.3,100.3L32.8,112c0,0-17.5,16.6-21.4,21.8s-4.9,28.7-1.6,47.6c2.8,16.1,19.4,68.3,24.3,83.7
		c0.8,2.5,4,3.2,6.7,3l87-3.9c3.4-0.2,5.8-3.4,4.9-6.7c-5.1-19.6-20.6-78.5-23.8-87.2c-3.9-10.4-23-35.5-23-35.5l-2.1-13.4
		L35.3,100.3L35.3,100.3z"/>
	<path class="st0" d="M119.5,212.1c-0.1,0-0.4-1.1-1-3.1c-0.6-2.2-1.4-5-2.4-8.4c-2-7.1-4.8-16.9-8.8-27.4c-2-5.2-4.2-10.1-6.4-14.5
		c-2.2-4.3-4.4-8.1-6.5-11.2c-4-6.1-7.1-9.6-6.9-9.7c0.1-0.1,0.9,0.8,2.2,2.3c0.7,0.8,1.5,1.7,2.4,2.9c0.9,1.2,2,2.5,3,4
		c2.2,3,4.4,6.8,6.7,11.1c2.2,4.4,4.5,9.3,6.5,14.6c4,10.6,6.7,20.5,8.5,27.6c0.9,3.6,1.6,6.5,2,8.5
		C119.4,211,119.6,212.1,119.5,212.1L119.5,212.1z"/>
	<path class="st0" d="M83.4,121.7c0.1,0-0.3,1.4-1.2,3.9s-2.1,5.9-3.6,10.1l-0.2,0.6l-0.5-0.3c-4.7-2.6-10.2-5.7-16-9
		c-8-4.4-15.3-8.3-20.6-11.1c-2.5-1.3-4.5-2.4-6.2-3.4c-1.5-0.8-2.3-1.3-2.2-1.4c0-0.1,0.9,0.3,2.4,0.9c1.5,0.7,3.7,1.7,6.4,3
		c5.4,2.6,12.8,6.4,20.8,10.8c6,3.3,11.5,6.5,16,9.2l-0.7,0.3c1.6-4.1,3-7.5,4-9.9S83.3,121.6,83.4,121.7L83.4,121.7z"/>
	<path class="st0" d="M102.4,160.4c0,0.1-0.8,0.3-2.2,0.7c-1.7,0.4-3.8,1-6.2,1.6c-5.6,1.3-12.6,3.1-20.5,4.9
		c-8,1.9-15.3,3.5-20.6,4.6c-2.6,0.5-4.8,0.9-6.3,1.2c-1.5,0.2-2.3,0.3-2.3,0.2c0-0.1,0.8-0.3,2.2-0.7c1.7-0.4,3.8-1,6.2-1.6
		c5.6-1.3,12.6-3.1,20.5-4.9c8-1.9,15.3-3.5,20.6-4.6c2.6-0.5,4.8-0.9,6.3-1.2C101.5,160.4,102.4,160.3,102.4,160.4z"/>
	<path class="st0" d="M104.3,164.4c0,0.1-0.8,0.5-2.2,1.1c-1.5,0.6-3.6,1.5-6.3,2.5c-5.3,2.1-12.8,4.8-21.1,7.7
		c-8.3,2.9-15.8,5.3-21.3,6.9c-2.8,0.8-5,1.4-6.6,1.8c-1.6,0.3-2.5,0.5-2.5,0.4s0.8-0.4,2.3-0.9c1.8-0.6,3.9-1.3,6.4-2.1
		c5.7-2,13-4.5,21.2-7.3c8.1-2.8,15.4-5.3,21.2-7.3c2.5-0.8,4.7-1.6,6.4-2.1C103.4,164.5,104.2,164.3,104.3,164.4L104.3,164.4z"/>
	<path class="st0" d="M49.3,119.5c-0.3-0.2,1.3-2.5,3.5-5c2.2-2.6,4.1-4.4,4.4-4.2s-1.3,2.5-3.5,5S49.6,119.7,49.3,119.5z"/>
	<path class="st0" d="M63.2,112.2c0.2,0.3-2.1,2.2-4.9,4.7c-2.8,2.5-4.9,4.7-5.2,4.4c-0.3-0.2,1.5-2.8,4.4-5.3
		C60.3,113.4,63.1,111.9,63.2,112.2z"/>
	<path class="st5" d="M19.4,125.2c0,0-14.1,11.6-15.5,20.6c-1.3,8.5-4.7,89.2-3.6,100.4s10.4,31.1,25.7,26
		c20.8-6.9,90.3-47.9,90.3-47.9l-12.9-24.3l-60.1,24.1l4.5-63.7C47.8,160.5,39.1,123.8,19.4,125.2L19.4,125.2z"/>
	<path class="st0" d="M44.5,166.6c0,0,0,0.4,0.1,1.1c0,0.8,0,1.8,0,3.1c0,2.8-0.1,6.7-0.1,11.7c-0.2,10.1-0.4,24.5-0.6,41.8
		l-0.7-0.5c17.3-7,37.9-15.3,60.1-24.2l0.5-0.2l0.3,0.5c0.4,0.8,0.9,1.6,1.3,2.5c4,7.5,7.8,14.8,11.6,21.8l0.3,0.5l-0.5,0.3
		c-24.9,14.1-47,26.2-62.9,34.6c-8,4.2-14.4,7.4-18.9,9.5c-2.2,1.1-4,1.8-5.2,2.3c-0.5,0.2-1,0.4-1.4,0.6c-0.3,0.1-0.5,0.2-0.5,0.2
		c0,0,0.1-0.1,0.4-0.3c0.4-0.2,0.8-0.4,1.3-0.7c1.2-0.6,2.9-1.4,5.1-2.5c4.4-2.2,10.8-5.5,18.7-9.8c15.8-8.5,37.8-20.7,62.7-34.9
		l-0.2,0.8c-3.7-7-7.6-14.3-11.6-21.8c-0.4-0.8-0.9-1.7-1.3-2.5l0.8,0.3c-22.2,8.9-42.9,17.1-60.2,24l-0.7,0.3l0-0.8
		c0.4-17.3,0.8-31.7,1.1-41.8c0.2-4.9,0.3-8.9,0.4-11.6c0.1-1.3,0.1-2.3,0.1-3.1C44.4,167,44.4,166.6,44.5,166.6L44.5,166.6z"/>
	<path class="st0" d="M43.6,160.4c-0.2,0.1-1-2.1-3.2-5.1c-2.1-3-5.7-6.8-10.7-9.4c-5-2.5-10.2-3.2-13.9-3.1c-3.7,0.1-6,0.7-6,0.5
		c-0.1-0.1,2.2-1.1,6-1.4c3.8-0.3,9.2,0.2,14.5,2.9s8.9,6.8,10.9,10C43.2,158,43.7,160.3,43.6,160.4L43.6,160.4z"/>
	<path class="st0" d="M43.3,200.8c0,0.2-2.5,0.1-6.4-0.2s-9.4-0.8-15.4-1.6c-6-0.8-11.4-1.7-15.3-2.4c-3.9-0.7-6.3-1.3-6.2-1.5
		c0-0.2,2.5,0.1,6.4,0.6c4.3,0.6,9.5,1.3,15.3,2.1c5.8,0.8,11,1.4,15.3,2C40.9,200.3,43.4,200.7,43.3,200.8z"/>
	<path class="st0" d="M40.5,194.8c0,0.3-8.8-0.6-19.6-2.2c-10.8-1.6-19.5-3.1-19.5-3.4c0-0.3,8.8,0.6,19.6,2.2
		S40.6,194.5,40.5,194.8L40.5,194.8z"/>
	<path class="st0" d="M28,242.3c-0.3-0.1,1.3-5.5,5.6-10.8c4.3-5.3,9.3-8,9.4-7.7c0.2,0.3-4.3,3.3-8.5,8.5
		C30.4,237.4,28.3,242.4,28,242.3L28,242.3z"/>
	<path class="st0" d="M71.5,248c-0.2,0.1-0.9-1.7-1.7-4.5c-0.9-2.9-1.8-6.9-2.5-11.4c-0.7-4.5-0.9-8.7-0.9-11.7c0-3,0.2-4.8,0.3-4.8
		c0.4,0,0.5,7.4,1.8,16.3C69.7,240.8,71.8,247.9,71.5,248z"/>
	<path class="st0" d="M75.1,246.6c-0.2,0-0.7-1.8-1.3-4.7c-0.6-2.9-1.3-7-1.8-11.6c-0.5-4.6-0.7-8.7-0.7-11.7c0-3,0.1-4.9,0.3-4.9
		c0.4,0,0.7,7.4,1.6,16.4C74.2,239.2,75.5,246.5,75.1,246.6L75.1,246.6z"/>
	<path class="st8" d="M217.9,178.7c0,0-10.9-5.6-25.9,3l-7.2,2.8l2.3,8.7L217.9,178.7L217.9,178.7z"/>
	<path class="st9" d="M192.7,198.4c0,0,3.9-8.5,11.3-12.8c0.6-0.4,2.3-1,3-1.2c2.4-0.8,6.8-2,10.7-2v-3.8c0,0-10.4-4.3-21,4.4
		c-11.6,9.6-9.1,15.9-9.1,15.9l4.6-0.5"/>
	<path class="st9" d="M148,182.6c0,0,24.9-9.3,29.6-9c2.9,0.2,4.3-0.1,6.6,6c2.1,5.8,4.6,14.6,4.6,14.6l-69,34.5l-0.3-13.5
		l10.9-26.3L148,182.6L148,182.6z"/>
	<path class="st8" d="M131.8,196.3l35.1-11.6c0,0,5.7-9.7,11.5-9.1c5.7,0.7,7.4,8.7,7.4,8.7s-2.6-13-9.1-11.9
		c-4.7,0.9-28.7,10.2-28.7,10.2l-15.7,13.2"/>
	<polygon class="st9" points="188.9,194.2 192.8,198.4 125.3,233 119.9,228.8 	"/>
	<path class="st1" d="M150.1,180.9l-18.2,15.4l15.4-5.1c0,0-0.1,5.8-5.1,10.3c0,0,1.8,5.7-1.9,8c0,0,1.2,3.4-4.3,7
		c-5.5,3.6-14.2,5.7-14.2,5.7l-11.2,1.3c0,0-5.8-6.1-6.1-15.2c-0.3-9.2,1.2-10.4,1.2-10.4c0.4-1.1,10.5-14,12.9-14.5
		c2.4-0.5,13.5,2.5,13.5,2.5l8.7-3.9c0,0,5.4-2.9,6.7-2.5C147.4,179.4,149.9,179.7,150.1,180.9L150.1,180.9z"/>
	<path class="st2" d="M132,185.8c0.1,0.3-2.4,1.6-5.6,2.8c-3.2,1.2-6,1.9-6.1,1.6c-0.1-0.3,2.4-1.6,5.6-2.8
		C129.1,186.2,131.9,185.5,132,185.8z"/>
	<path class="st2" d="M142.1,201.2c0.2,0.3-1.4,1.6-3.7,2.6c-2.2,1.1-4,1.8-4.2,1.5c-0.2-0.3,1.4-1.6,3.7-2.6
		C140.1,201.6,142,200.9,142.1,201.2z"/>
	<path class="st2" d="M134.1,212.5c-0.1-0.3,1.1-1.2,2.7-2.1c1.6-0.9,3.1-1.3,3.3-1c0.2,0.3-1.1,1.2-2.7,2.1
		C135.8,212.4,134.3,212.8,134.1,212.5z"/>
	<path class="st0" d="M192.8,198.4c0,0-0.4-0.3-1.2-1.1c-0.8-0.9-1.8-2-3.1-3.3l0-0.1l0-0.1c-1-3.3-2.3-8-5.1-13
		c-0.7-1.2-1.5-2.4-2.6-3.5s-2.4-1.5-3.9-1.1c-2.9,0.8-5.5,3.4-7.6,6.1c-0.6,0.8-1.2,1.5-1.6,2.3l-0.1,0.2l-0.2,0.1
		c-9.8,3.3-18.6,6.2-24.9,8.3c-3,0.9-5.5,1.7-7.5,2.4c-1.8,0.5-2.8,0.8-2.8,0.7c0-0.1,0.9-0.5,2.6-1.1c2-0.7,4.4-1.6,7.4-2.7
		c6.3-2.2,15-5.3,24.8-8.6l-0.3,0.2c0.5-0.8,1.1-1.6,1.7-2.4c2.3-2.8,4.8-5.5,8.4-6.5c0.4-0.1,0.9-0.1,1.4-0.1
		c0.4,0,0.9,0.1,1.4,0.2c0.4,0.2,0.9,0.4,1.2,0.6l1,0.8c1.2,1.2,2,2.5,2.8,3.8c2.7,5.2,3.9,10,4.8,13.4l-0.1-0.1
		c1.1,1.4,2,2.5,2.8,3.5C192.5,197.9,192.8,198.4,192.8,198.4L192.8,198.4z"/>
	<path class="st0" d="M188.6,193.1c0,0.1-0.9,0.6-2.6,1.6c-2,1-4.4,2.3-7.4,3.9c-6.5,3.3-14.9,7.7-24.3,12.6
		c-9.4,4.9-17.9,9.3-24.3,12.6c-2.9,1.5-5.4,2.8-7.4,3.8c-1.8,0.9-2.8,1.3-2.8,1.2s0.9-0.7,2.6-1.7c1.7-1,4.2-2.4,7.2-4.1
		c6.1-3.4,14.6-8,24.1-13c9.5-4.9,18.2-9.2,24.5-12.3c3.2-1.5,5.7-2.7,7.5-3.5S188.6,193,188.6,193.1L188.6,193.1z"/>
	<path class="st1" d="M156,202.6c0,0-3.4,0.3-2.9,3.5l0.5,3.1c0,0-4.2-6.6-4.7-8.1c-1.5-4.2-5.3-2.1-4.5,1.7c0.2,1,0.6,4.9,0.6,4.9
		s-0.9-1.3-3.1,0.4c-0.6,0.4-1.6,5.4-1.6,5.4l-4.3,2.9c0,0-0.2,3.1,0.4,5.5c0.6,2.5,2.2,3.5,2.9,4.1s8.4,6.5,10.7,6.1s4-2.6,3.9-3.4
		c-0.1-0.8,3.5,0,5.1-1.6c1.6-1.6,1.7-1.9,1.8-2.3s4-1.6,5.2-3c1.2-1.4,1-2.3,1-2.3s3.5-1.1,4.2-3.2c0,0,1.3-2,0.7-4.4l-0.5-2.5
		l-2.8,1.4l-5.9-2.9C162.6,208,158.1,201.7,156,202.6L156,202.6z"/>
	<path class="st2" d="M163.7,217.9c-0.1,0.3-3.4-1.2-6.7-4.2c-3.2-3-5-6.1-4.7-6.3c0.3-0.2,2.4,2.6,5.5,5.4
		C161,215.7,163.9,217.6,163.7,217.9L163.7,217.9z"/>
	<path class="st2" d="M155.3,221.5c-0.2,0.2-3.3-2.2-6.3-6.1s-4.4-7.5-4.2-7.6c0.3-0.2,2.3,3.2,5.1,6.9
		C152.9,218.4,155.6,221.2,155.3,221.5L155.3,221.5z"/>
	<path class="st2" d="M151,225.8c0,0.1-1.1,0.1-2.6-0.4c-1.5-0.5-3.6-1.6-5.3-3.5c-1.7-1.9-2.6-4.1-2.9-5.7
		c-0.3-1.6-0.2-2.6-0.1-2.6c0.4-0.1,0.8,4,3.9,7.5C147.2,224.5,151.2,225.5,151,225.8L151,225.8z"/>
</g>
</svg>
